<?xml version="1.0" standalone="no"?>
<svg xmlns:xlink="http://www.w3.org/1999/xlink" id="wave" style="transform:rotate(180deg); transition: 0.3s" viewBox="0 0 1440 490" version="1.1" xmlns="http://www.w3.org/2000/svg"><defs><linearGradient id="sw-gradient-0" x1="0" x2="0" y1="1" y2="0"><stop stop-color="rgba(36, 36, 36, 1)" offset="0%"/><stop stop-color="rgba(36, 36, 36, 1)" offset="100%"/></linearGradient></defs><path style="transform:translate(0, 0px); opacity:1" fill="url(#sw-gradient-0)" d="M0,441L720,196L1440,441L2160,0L2880,294L3600,98L4320,49L5040,0L5760,294L6480,343L7200,147L7920,196L8640,49L9360,343L10080,245L10800,196L11520,196L12240,98L12960,441L13680,98L14400,49L15120,196L15840,0L16560,343L17280,98L17280,490L16560,490L15840,490L15120,490L14400,490L13680,490L12960,490L12240,490L11520,490L10800,490L10080,490L9360,490L8640,490L7920,490L7200,490L6480,490L5760,490L5040,490L4320,490L3600,490L2880,490L2160,490L1440,490L720,490L0,490Z"/></svg>